<svg xmlns="http://www.w3.org/2000/svg" viewBox="0 0 420 420" role="img" aria-labelledby="title desc">
  <title id="title">Logo Toné Pizzaria</title>
  <desc id="desc">Logo da Toné Pizzaria com fundo escuro e tipografia dourada.</desc>
  <defs>
    <linearGradient id="gold" x1="0%" y1="0%" x2="100%" y2="100%">
      <stop offset="0%" stop-color="#f7d78a"/>
      <stop offset="52%" stop-color="#cfa24d"/>
      <stop offset="100%" stop-color="#f1d193"/>
    </linearGradient>
  </defs>
  <rect x="8" y="8" width="404" height="404" rx="60" fill="#081019" stroke="#f4f1e8" stroke-width="10"/>
  <g fill="none" stroke="url(#gold)" stroke-linecap="round">
    <path d="M210 66c22 0 40 18 40 40v18h-80v-18c0-22 18-40 40-40Z" stroke-width="8"/>
    <path d="M164 126h92" stroke-width="7"/>
    <path d="M182 104c8 4 18 6 28 6 10 0 20-2 28-6" stroke-width="6"/>
    <path d="M144 154c24-14 44-20 66-20s42 6 66 20" stroke-width="7"/>
  </g>
  <g fill="url(#gold)" font-family="Arial, Helvetica, sans-serif" text-anchor="middle">
    <text x="210" y="238" font-size="84" font-weight="700" letter-spacing="2">TONÉ</text>
    <rect x="110" y="252" width="200" height="4" rx="2" fill="url(#gold)" opacity=".9"/>
    <text x="210" y="304" font-size="42" font-weight="600" letter-spacing="4">PIZZARIA</text>
    <text x="210" y="350" font-size="18" font-weight="600" letter-spacing="5">DESDE 2018</text>
  </g>
</svg>
